<svg xmlns="http://www.w3.org/2000/svg" width="3556" height="2000" version="1.2"><style>.a{fill:#ff4850}.b{fill:none;stroke:#000;stroke-miterlimit:10;stroke-width:2}.d{fill:#fff}.f,.g{fill:none}.f{stroke:#020b31;stroke-linecap:round;stroke-linejoin:round;stroke-width:2.5}.g{stroke:#ee1c25;stroke-miterlimit:10;stroke-width:2.7}.i{fill:#0c001c}.j{fill:none;stroke:#0c001c;stroke-linecap:round;stroke-miterlimit:10;stroke-width:2.1}.l{fill:#161616}</style><path fill-rule="evenodd" d="M363.7 73.5v141.6h-34.5V73.5zM500.6 73.5v141.6h-34.4V73.5z" class="a"/><path fill-rule="evenodd" d="M363.7-14v229.1h-34.5V-14zM500.6-14v229.1h-34.4V-14z" class="b"/><path d="M600 236.7c-13.2-35.7-79.3-46.3-79.3-46.3v-23.7H309.2v23.7s-66.1 10.6-79.3 46.3 0 464 0 464-3.3 34.3 36.7 34.3h296.7c39.9 0 36.7-34.3 36.7-34.3s13.2-428.3 0-464z" class="b"/><path d="M579.9 258.2c-11.8-31.8-70.7-41.3-70.7-41.3v-21.2H320.7v21.2s-59 9.5-70.7 41.3c-11.8 31.8 0 413.6 0 413.6s-2.9 30.6 32.7 30.6h264.5c35.6 0 32.7-30.6 32.7-30.6s11.8-381.8 0-413.6" class="a"/><path d="M533.9 144.2H296c-6.2 0-11.3 5-11.3 11.2s5.1 11.3 11.3 11.3h237.9c6.2 0 11.2-5.1 11.2-11.3s-5-11.2-11.2-11.2z" class="b"/><path d="M414.9 195.7v-366.4" style="fill:none;stroke:#ff1620;stroke-miterlimit:10;stroke-width:2"/><path fill-rule="evenodd" d="M423 369.3v118.1h-29.8V369.3z" class="d"/><path fill-rule="evenodd" d="M467.1 413.5v29.8h-118v-29.8z" class="d"/><path d="m3855.4 580.6-798.9 304.2c-23.3 9.6-46.1 20.2-68.5 31.7l-142.3 73.2s-194.2 203.5-235.7 265c-41.6 61.6-85.8 85.6-111.9 63.2 0 0-24.6 26.9-51.3 10.4-18.8-11.7-15-43.3-15-43.3s-32.3 25.1-56.3 3.8c-23.8-21.2-3.2-73.6-3.2-73.6s-20.8 26.9-40.6 11.4c-19.7-15.4 1.5-71.2 32.5-133s58.1-119.7 58.1-119.7l-66.5 30.9s-51.6 10-21.7-47.5c29.8-57.5 132.1-216 180.6-249.9 28.5-19.8 686.6-397.3 1168.4-675.6z" style="fill:none;stroke:#0c001c;stroke-miterlimit:10;stroke-width:2.5"/><path d="m2422.3 973.9 107.6-37.3M2498.1 1317.9s23.4-65.3 85.1-174.4c0 0-48-187.8 82.9-313M2431.8 1285l108.8-192.9M2372.3 1215.2l116.1-185.6M2437.5 968.6l145.7 174.9M2845.7 989.7s44.8-47.7 53.9-90.3" class="f"/><path d="M3211.5 619.5c-131.4 73.2 45.1 304.1 52.6 334.1l-1.7 797.8c0 76.6-62 138.6-138.6 138.6H557.6c-76.5 0-138.6-62-138.6-138.6V799.6" class="g"/><path d="m3241.1 595.4 81-53.7" style="fill:none;stroke:#0c001c;stroke-miterlimit:10;stroke-width:2.1"/><path d="m3301.4 555.4 20.7-13.7" class="g"/><path d="M3197.9 623.6c-5.4-8.3-3-19.3 5.2-24.7l56.6-36.9c8.3-5.3 19.3-3 24.7 5.2 5.4 8.3 3 19.3-5.2 24.7l-56.7 36.9c-8.2 5.3-19.2 3-24.6-5.2" class="i"/><path d="m3267.9 538.9-50-18.3M3305.6 513.6l-3.6-53.1M3347 569.6l50.1 17.9M3309.4 595.1l4 53.1" class="j"/><path d="m3217.2 776.5-99.9 3.9c-14.4.6-26.5-10.6-27.1-25-.5-14.4 10.7-26.5 25.1-27.1l99.8-3.9c14.4-.6 26.6 10.6 27.1 25 .6 14.4-10.6 26.5-25 27.1" style="fill:#fbd6e7"/><path d="m3196.9 766.9-60 2.4c-8.7.3-16-6.4-16.3-15.1-.4-8.7 6.4-15.9 15-16.3l60-2.3c8.7-.4 16 6.4 16.3 15 .3 8.7-6.4 15.9-15 16.3" class="i"/><path d="M1878.9 1119.2q-.5-.1-.9-.3c-6.4-2.8-9.6-9.3-11.8-14.6-4.5-11.4-6.6-22.6-6.1-33.2.8-16.5 6.2-26 16.2-28.3 5.6-1.4 11.8.2 16 4.1 2.4 2.3 4.3 5.2 5.6 8.8.9 2.7 1.4 5.4 1.8 7.9q.9-1.1 1.7-2.2c1.5-1.9 3-3.8 5-5.6 5.5-4.7 13.4-6.2 20.3-4 6.9 2.3 12.2 8.3 13.7 15.4 1.1 4.7.5 10-1.7 15.2-2.1 5-5.4 9.2-7.7 11.9-10.3 12.1-23.1 20.6-36.9 24.6-4 1.1-9.8 2.4-15.2.3m4.8-68c-1.8-.6-3.7-.8-5.5-.3-6 1.4-9.2 8.1-9.8 20.5-.4 9.5 1.5 19.5 5.6 29.8 1.5 3.8 3.7 8.4 7.4 10.1 2.4 1 5.7.9 10.4-.4 12.1-3.5 23.7-11.3 32.8-22 3.1-3.6 5.2-6.7 6.5-9.8 1-2.4 2.1-6.2 1.2-10.1-.9-4.2-4.1-7.9-8.3-9.3-4-1.3-8.9-.3-12.2 2.4-1.3 1.2-2.5 2.8-3.8 4.4-1.5 2-3.1 3.9-5.1 5.7-.5.4-1.7 1.5-3.5 1.7-2.5.4-5.1-.9-6.4-3.2-.9-1.6-1.1-3.1-1.3-4.2-.3-2.5-.8-5.4-1.7-8q-1.2-3.45-3.3-5.4c-.9-.8-1.9-1.4-3-1.9m16.5 15.3v.1zM2303.7 368l-1-.4c-7.7-3.4-11.5-11-14-17.3-5.4-13.7-7.9-27-7.3-39.7.9-19.6 7.3-30.9 19.2-33.7 6.7-1.7 14.1.3 19.2 5 2.8 2.6 5 6 6.6 10.4 1.1 3.2 1.7 6.4 2.2 9.4l2-2.6c1.8-2.2 3.6-4.6 6-6.7 6.5-5.6 16-7.4 24.1-4.7 8.2 2.7 14.6 9.9 16.4 18.3 1.3 5.7.5 11.9-2.1 18.1-2.5 6-6.4 11-9.2 14.2-12.3 14.4-27.5 24.5-43.9 29.3-4.8 1.4-11.7 2.9-18.2.4m5.7-81c-2.1-.8-4.4-1-6.5-.5-7.2 1.7-10.9 9.7-11.6 24.5-.5 11.3 1.7 23.3 6.6 35.6 1.8 4.5 4.4 10 8.8 11.9 2.9 1.3 6.9 1.2 12.4-.4 14.4-4.2 28.3-13.5 39.2-26.2 3.7-4.4 6.1-8.1 7.6-11.7 1.3-2.9 2.6-7.4 1.5-12.1-1-5-4.9-9.4-9.8-11s-10.7-.5-14.6 2.9c-1.6 1.4-3.1 3.2-4.6 5.2-1.8 2.3-3.6 4.7-6 6.7-.6.6-2.1 1.8-4.3 2.1-2.9.5-6-1.1-7.6-3.9-1-1.8-1.3-3.6-1.4-4.9-.4-3-1-6.5-2.1-9.5-1-2.9-2.3-5-4-6.5-1-1-2.2-1.7-3.6-2.2m19.7 18.2h.1zM644.4 1219.1q-.5.2-1 .5c-7.5 3.6-15.9 1.4-22.3-.8-13.8-4.8-25.5-11.7-34.7-20.5-14.2-13.5-18.5-25.8-12.9-36.6 3.2-6.2 9.5-10.4 16.3-11.2 3.9-.4 7.9.2 12.3 1.9 3.1 1.2 5.9 2.8 8.5 4.4l-.6-3.2c-.6-2.8-1.2-5.7-1.2-8.9.1-8.6 4.9-16.9 12.2-21.3 7.5-4.4 17.1-4.5 24.6-.4 5.1 2.8 9.4 7.4 12.4 13.4 2.8 5.8 4 12.1 4.6 16.3 2.9 18.7.6 36.8-6.6 52.4-2.1 4.5-5.5 10.7-11.6 14m-57.5-57.5c-1.9 1.1-3.6 2.7-4.6 4.7-3.4 6.5.2 14.6 10.9 24.8 8.2 7.8 18.7 14 31.1 18.3 4.7 1.6 10.6 3.2 14.9 1.2 2.9-1.4 5.3-4.4 7.8-9.7 6.2-13.6 8.3-30.2 5.8-46.7-.8-5.7-2-9.9-3.7-13.4-1.5-2.9-4-6.8-8.2-9.1-4.5-2.5-10.3-2.4-14.8.2-4.4 2.6-7.3 7.8-7.3 12.9 0 2.2.4 4.5.9 6.9.6 2.8 1.1 5.8 1.1 8.9 0 .9 0 2.8-1.2 4.6-1.5 2.6-4.8 3.9-7.9 3.3-2.1-.4-3.6-1.5-4.7-2.2-2.5-1.6-5.5-3.5-8.6-4.7q-4.05-1.65-7.5-1.2c-1.4.1-2.7.6-4 1.2m26.7-2.9" class="l"/></svg>