
<svg version="1.1" id="Layer_1" xmlns="http://www.w3.org/2000/svg" xmlns:xlink="http://www.w3.org/1999/xlink" 
	 viewBox="0 0 460 460" xml:space="preserve">
<g id="XMLID_2913_">
	<path id="XMLID_1966_" style="fill:#E57C53;" d="M415.191,326.321c-9.233,28.097-25.088,54.514-47.571,76.843l0,0
		C329.575,441.055,279.712,460,229.848,460s-99.727-18.945-137.771-56.836l0,0c-22.482-22.328-38.338-48.746-47.571-76.843
		c-15.312-46.598-12.404-97.816,8.734-142.665c9.331-19.797,22.205-38.356,38.641-54.726L215.326,5.986
		C219.333,1.995,224.59,0,229.848,0s10.516,1.995,14.523,5.986L367.815,128.93c16.436,16.369,29.311,34.928,38.641,54.726
		C427.594,228.505,430.503,279.723,415.191,326.321z"/>
	<path id="XMLID_1948_" style="fill:#F48E6E;" d="M272.276,455.362C258.317,458.45,244.083,460,229.848,460
		c-49.863,0-99.727-18.945-137.771-56.836l0,0c-22.482-22.328-38.338-48.746-47.57-76.843
		c-15.313-46.598-12.404-97.816,8.734-142.665c9.33-19.797,22.205-38.356,38.641-54.726L215.326,5.986
		C219.332,1.995,224.59,0,229.848,0s10.516,1.995,14.523,5.986l27.905,27.792l-95.539,95.152
		c-16.436,16.369-29.311,34.928-38.641,54.726c-21.138,44.849-24.046,96.067-8.734,142.665
		c9.233,28.097,25.088,54.514,47.571,76.843l0,0C204.117,430.238,237.336,447.633,272.276,455.362z"/>
	<path id="XMLID_1941_" style="fill:#E05F3D;" d="M415.494,326.321c-9.233,28.097-25.088,54.514-47.571,76.843l0,0
		C329.879,441.055,280.015,460,230.152,460s-99.727-18.945-137.771-56.836l0,0c-22.482-22.328-38.338-48.746-47.571-76.843
		c-15.312-46.598-12.403-97.816,8.734-142.665c0.68-1.442,1.384-2.876,2.102-4.305C61.837,179.77,68.08,180,74.378,180
		c93.504,0,176.093-46.676,225.774-117.99l67.967,66.921c16.436,16.369,29.311,34.928,38.641,54.726
		C427.898,228.505,430.806,279.723,415.494,326.321z"/>
	<path id="XMLID_1940_" style="fill:#E86E56;" d="M272.125,455.396c-13.911,3.066-28.093,4.604-42.276,4.604
		c-49.863,0-99.727-18.945-137.771-56.836l0,0c-22.482-22.328-38.338-48.746-47.571-76.843
		c-15.312-46.598-12.403-97.816,8.734-142.665c0.68-1.442,1.384-2.876,2.102-4.305C61.533,179.77,67.776,180,74.074,180
		c24.31,0,47.88-3.162,70.328-9.085c-2.368,4.183-4.578,8.431-6.609,12.741c-21.138,44.849-24.047,96.067-8.734,142.665
		c9.232,28.097,25.088,54.514,47.57,76.843l0,0C203.853,430.277,237.129,447.685,272.125,455.396z"/>
	<path id="XMLID_1333_" style="fill:#D83427;" d="M415.18,326.321c-9.233,28.097-25.088,54.514-47.571,76.843l0,0
		C329.564,441.055,279.701,460,229.837,460s-99.727-18.945-137.771-56.836l0,0c-22.482-22.328-38.338-48.746-47.571-76.843
		c-5.304-16.142-8.418-32.838-9.349-49.632C61.828,285.319,90.286,290,119.841,290c110.59,0,205.917-65.289,249.582-159.417
		c-0.541-0.551,0.916,0.907,2.151,2.206c14.647,15.405,26.267,32.61,34.872,50.868C427.583,228.505,430.492,279.723,415.18,326.321z
		"/>
	<path id="XMLID_1329_" style="fill:#E2453D;" d="M272.568,455.292c-14.057,3.133-28.393,4.708-42.73,4.708
		c-49.863,0-99.727-18.945-137.771-56.836l0,0c-22.482-22.328-38.338-48.746-47.571-76.843c-5.304-16.142-8.417-32.838-9.349-49.632
		C61.828,285.319,90.286,290,119.841,290c0.657,0,0.383-0.014,1.039-0.018c1.536,12.292,5.175,24.466,9.077,36.339
		c9.233,28.097,25.088,54.514,47.571,76.843l0,0C204.632,430.16,237.738,447.53,272.568,455.292z"/>
	<path id="XMLID_1328_" style="fill:#C92323;" d="M415.163,326.321c-9.233,28.097-25.088,54.514-47.571,76.843l0,0
		C329.547,441.055,279.684,460,229.82,460s-99.727-18.945-137.771-56.836l0,0c-12.062-11.979-22.198-25.144-30.445-39.105
		c1.018,1.723,2.065,3.433,3.141,5.131C97.122,382.59,132.607,390,169.828,390c111.874,0,208.136-66.808,251.089-162.701
		c-0.352-1.728-0.734-3.451-1.133-5.171C427.774,256.504,426.237,292.62,415.163,326.321z"/>
	<path id="XMLID_1248_" style="fill:#B51C1C;" d="M272.541,455.292C258.486,458.425,244.15,460,229.813,460
		c-49.863,0-99.727-18.945-137.771-56.836l0,0c-9.879-9.811-18.466-20.417-25.781-31.605c-1.617-2.472-2.599-4.067-1.523-2.369
		c29.397,12.167,61.361,19.378,94.856,20.603c1.533,0.056,5.416,0.168,5.8,0.174c3.809,4.544,7.813,8.934,12.105,13.197l0,0
		C204.604,430.16,237.711,447.53,272.541,455.292z"/>
</g>
</svg>