
<svg version="1.2" xmlns="http://www.w3.org/2000/svg" viewBox="0 0 3556 2000" width="3556" height="2000"><style>.a{fill:#161616}.b{fill:#faf1ef;stroke:#0c001c;stroke-miterlimit:10;stroke-width:2}.c{fill:#ff4850}.d{fill:#faf1ef}.e{fill:#faf1ef;stroke:#0c001c;stroke-linecap:round;stroke-miterlimit:10;stroke-width:2}.f{fill:#d7a79d}.g{fill:none;stroke:#ee1c25;stroke-miterlimit:10;stroke-width:4.8}.h{fill:#e5e6e7}.i{fill:#0c001c}.j{fill:#ed1c24}</style><path class="a" d="m2640.8 1845.5q-0.3-0.2-0.6-0.4c-4.6-3.2-6.1-8.8-6.9-13.3-1.8-9.8-1.6-18.9 0.5-27.2 3.2-12.8 9-19.4 17.2-19.7 4.7-0.2 9.3 2.1 12 5.9 1.5 2.1 2.5 4.7 2.9 7.8 0.3 2.2 0.3 4.4 0.2 6.4q0.9-0.6 1.7-1.4c1.5-1.2 3-2.5 4.9-3.6 5-2.8 11.5-2.8 16.5 0.1 5.1 2.9 8.3 8.5 8.4 14.3 0.1 3.9-1.2 8-3.8 11.7-2.5 3.6-5.7 6.4-8 8.1-10 7.9-21.4 12.5-32.9 13.5-3.3 0.2-8.1 0.3-12.1-2.2zm14.7-52.7c-1.3-0.8-2.8-1.3-4.3-1.2-4.9 0.1-8.5 4.9-10.9 14.6-1.9 7.4-2 15.6-0.5 24.4 0.6 3.2 1.6 7.2 4.3 9 1.7 1.3 4.4 1.7 8.2 1.4 10.1-0.8 20.5-5.1 29.4-12 3-2.4 5.1-4.5 6.6-6.7 1.2-1.8 2.7-4.6 2.6-7.8 0-3.4-2-6.8-5-8.6-3-1.7-7-1.7-10 0-1.3 0.7-2.5 1.7-3.7 2.8-1.5 1.3-3 2.6-4.9 3.6-0.5 0.3-1.6 0.9-3.1 0.8-2 0-3.8-1.5-4.5-3.6-0.5-1.3-0.4-2.5-0.3-3.4 0.1-2 0.2-4.4-0.1-6.6-0.3-2-0.8-3.5-1.7-4.8-0.6-0.8-1.3-1.4-2.1-1.9zm10.5 14.7h0.1z"/><path class="a" d="m909.5 1817.8q-0.3 0.1-0.6 0.3c-5.1 2.3-10.7 0.9-15-0.7-9.3-3.3-17.2-8.1-23.3-14-9.5-9.2-12.3-17.5-8.4-24.8 2.1-4.1 6.4-6.9 11-7.4 2.7-0.3 5.4 0.2 8.3 1.3 2 0.9 4 2 5.7 3.1q-0.2-1.1-0.4-2.2c-0.4-1.9-0.7-3.8-0.7-6 0.1-5.8 3.3-11.4 8.3-14.3 5.1-2.9 11.5-2.9 16.6-0.1 3.4 1.9 6.3 5.1 8.2 9.1 1.9 4 2.7 8.2 3.1 11 1.7 12.7 0.1 24.9-4.9 35.3-1.4 3-3.7 7.2-7.9 9.4zm-38.3-39.1c-1.3 0.7-2.5 1.8-3.2 3.1-2.3 4.3 0.1 9.8 7.2 16.8 5.5 5.3 12.5 9.5 20.9 12.5 3.1 1.1 7.1 2.2 10 0.9 1.9-0.9 3.6-3 5.3-6.5 4.3-9.1 5.8-20.3 4.2-31.4-0.5-3.8-1.3-6.7-2.4-9.1-0.9-1.9-2.6-4.6-5.4-6.2-3-1.6-7-1.6-10 0.1-3 1.7-5 5.2-5 8.6-0.1 1.5 0.2 3.1 0.5 4.7 0.4 1.9 0.8 3.9 0.7 6 0 0.6 0 1.9-0.8 3.1-1.1 1.7-3.2 2.6-5.4 2.1-1.4-0.3-2.4-0.9-3.1-1.4-1.7-1.2-3.7-2.4-5.7-3.3q-2.8-1.1-5.1-0.9c-0.9 0.1-1.9 0.4-2.7 0.9z"/><path class="a" d="m2478.5 1071.4q-0.4-0.2-0.9-0.5c-6.6-4.7-8.7-12.7-9.9-19.2-2.5-13.9-2.3-26.9 0.7-38.8 4.6-18.4 12.9-27.8 24.7-28.2 6.7-0.3 13.2 3 17.1 8.4 2.3 3 3.6 6.7 4.3 11.1q0 0 0 0.1c0.4 3.1 0.4 6.3 0.3 9.2q1.2-1 2.4-2c2.1-1.8 4.2-3.7 6.9-5.2 7.2-4 16.5-4 23.7 0.1 7.3 4.2 11.9 12.2 12 20.5 0.1 5.6-1.8 11.4-5.4 16.7-3.6 5.2-8.3 9.2-11.5 11.7-14.3 11.2-30.7 17.9-47.2 19.2-4.7 0.4-11.5 0.5-17.2-3.1zm21-75.5c-1.8-1.1-4-1.7-6.1-1.7-7.1 0.3-12.2 7.1-15.7 21-2.7 10.5-2.9 22.3-0.6 34.8 0.8 4.7 2.3 10.4 6.1 13 2.5 1.8 6.2 2.4 11.8 2 14.4-1.2 29.3-7.3 42-17.3 4.4-3.3 7.4-6.4 9.5-9.5 1.8-2.5 3.8-6.6 3.8-11.1-0.1-4.9-2.9-9.8-7.3-12.3-4.2-2.5-10-2.5-14.2-0.1-1.9 1-3.6 2.5-5.4 4-2.1 1.9-4.3 3.7-7 5.2-0.7 0.4-2.3 1.3-4.4 1.2-2.9-0.1-5.5-2.2-6.5-5.2-0.6-1.9-0.5-3.6-0.4-4.9 0.2-2.9 0.3-6.3-0.1-9.4-0.4-2.9-1.2-5.1-2.5-6.9-0.8-1.1-1.8-2-3-2.8zm15.1 21v0.1z"/><path class="a" d="m1107.7 1072.7q-0.4 0.2-0.9 0.5c-7.3 3.3-15.4 1.2-21.5-1-13.3-4.8-24.5-11.5-33.3-20.1-13.6-13.1-17.7-25.1-12.1-35.4 3.1-5.9 9.2-10 15.8-10.7 3.8-0.4 7.7 0.3 11.8 2 3 1.2 5.8 2.8 8.2 4.3q-0.3-1.5-0.6-3.1c-0.5-2.7-1-5.5-1-8.6 0.1-8.2 4.8-16.3 12-20.4 7.2-4.2 16.5-4.2 23.7-0.2 4.9 2.7 9 7.3 11.8 13.1 2.7 5.6 3.8 11.7 4.3 15.7 2.6 18.1 0.2 35.5-6.9 50.5-2 4.3-5.4 10.3-11.3 13.4zm-54.9-55.9c-1.9 1-3.5 2.5-4.5 4.4-3.3 6.2 0 14.1 10.3 24 7.8 7.6 17.9 13.7 29.9 18 4.4 1.6 10.1 3.2 14.3 1.3 2.8-1.3 5.2-4.3 7.6-9.3 6.2-13.1 8.3-29.1 6.1-45-0.8-5.5-1.9-9.6-3.5-13-1.4-2.8-3.8-6.6-7.8-8.8-4.3-2.4-10-2.5-14.3 0.1-4.2 2.4-7.1 7.4-7.2 12.3 0 2.1 0.4 4.3 0.8 6.7 0.5 2.7 1.1 5.6 1 8.6 0 0.8 0 2.7-1.2 4.4-1.5 2.4-4.6 3.7-7.7 3.1-1.9-0.5-3.4-1.4-4.5-2.2-2.4-1.6-5.2-3.4-8.1-4.6-2.7-1.1-5.1-1.5-7.3-1.2-1.3 0.1-2.7 0.5-3.9 1.2z"/><path class="a" d="m2673.8 393.5q-0.3-0.2-0.6-0.4c-4.6-3.2-6.1-8.8-6.9-13.3-1.8-9.8-1.6-18.9 0.5-27.2 3.2-12.8 9-19.4 17.2-19.7 4.7-0.2 9.3 2.1 12 5.9 1.5 2.1 2.5 4.7 2.9 7.8 0.3 2.2 0.3 4.4 0.2 6.4q0.9-0.6 1.7-1.4c1.5-1.2 3-2.5 4.9-3.6 5-2.8 11.5-2.8 16.5 0.1 5.1 2.9 8.3 8.5 8.4 14.3 0.1 3.9-1.2 8-3.8 11.7-2.5 3.6-5.7 6.4-8 8.1-10 7.9-21.4 12.5-32.9 13.5-3.3 0.2-8.1 0.3-12.1-2.2zm14.7-52.7c-1.3-0.8-2.8-1.3-4.3-1.2-4.9 0.1-8.5 4.9-10.9 14.6-1.9 7.4-2 15.6-0.5 24.4 0.6 3.2 1.6 7.2 4.3 9 1.7 1.3 4.4 1.7 8.2 1.4 10.1-0.8 20.5-5.1 29.4-12 3-2.4 5.1-4.5 6.6-6.7 1.2-1.8 2.7-4.6 2.6-7.8 0-3.4-2-6.8-5-8.6-3-1.7-7-1.7-10 0-1.3 0.7-2.5 1.7-3.7 2.8-1.5 1.3-3 2.6-4.9 3.6-0.5 0.3-1.6 0.9-3.1 0.8-2 0-3.8-1.5-4.5-3.6-0.5-1.3-0.4-2.5-0.3-3.4 0.1-2 0.2-4.4-0.1-6.6-0.3-2-0.8-3.5-1.7-4.8-0.6-0.8-1.3-1.4-2.1-1.9zm10.5 14.7h0.1z"/><path class="a" d="m824.5 365.8q-0.3 0.1-0.6 0.3c-5.1 2.3-10.7 0.9-15-0.7-9.3-3.3-17.2-8.1-23.3-14-9.5-9.2-12.3-17.5-8.4-24.8 2.1-4.1 6.4-6.9 11-7.4 2.7-0.3 5.4 0.2 8.3 1.3 2 0.9 4 2 5.7 3.1q-0.2-1.1-0.4-2.2c-0.4-1.9-0.7-3.8-0.7-6 0.1-5.8 3.3-11.4 8.3-14.3 5.1-2.9 11.5-2.9 16.6-0.1 3.4 1.9 6.3 5.1 8.2 9.1 1.9 4 2.7 8.2 3.1 11 1.7 12.7 0.1 24.9-4.9 35.3-1.4 3-3.7 7.2-7.9 9.4zm-38.3-39.1c-1.3 0.7-2.5 1.8-3.2 3.1-2.3 4.3 0.1 9.8 7.2 16.8 5.5 5.3 12.5 9.5 20.9 12.5 3.1 1.1 7.1 2.2 10 0.9 1.9-0.9 3.6-3 5.3-6.5 4.3-9.1 5.8-20.3 4.2-31.4-0.5-3.8-1.3-6.7-2.4-9.1-0.9-1.9-2.6-4.6-5.4-6.2-3-1.6-7-1.6-10 0.1-3 1.7-5 5.2-5 8.6-0.1 1.5 0.2 3.1 0.5 4.7 0.4 1.9 0.8 3.9 0.7 6 0 0.6 0 1.9-0.8 3.1-1.1 1.7-3.2 2.6-5.4 2.1-1.4-0.3-2.4-0.9-3.1-1.4-1.7-1.2-3.7-2.4-5.7-3.3q-2.8-1-5.1-0.9c-0.9 0.1-1.9 0.4-2.7 0.9z"/><path class="b" d="m3312.6 757.5c0 0 47.7-134.4 48-165.7 0.3-31.2-28.9-56.1-61.9-57.1-33-1-62 194.1-62 194.1l36.2 94.2 33-13.1z"/><path class="b" d="m3031.9 708.7c0 0-4.9-143.7-11.8-174.2-6.9-30.5-25.8-49.1-58.2-42.6-34.5 14.1-19.6 206.2-19.6 206.2l56.7 83.4 29.2-20.2z"/><path class="b" d="m3239.1 659.8c0 0-9.3-143.5-19.1-173.2-9.7-29.7-38.7-41.7-70.3-32.2-31.7 9.6 8.3 202.4 8.3 202.4l64.3 77.7 27.1-22.9z"/><path class="b" d="m2775.3 820.7c-7.9 43.7 0.2 104.6 14.6 148.4 5.4 30.2 106.1 156.9 112.6 193.6 6.5 36.6-72.2 1202.6-72.2 1202.6l449 6.2c0 0-70.7-1159.2-70.7-1191.6 0-32.3 22.9-73.3 45.5-103.5 37.4-39.5 63.6-98 94.9-195.1 31.2-97 15.2-132.7-16-135.9-31.3-3.3-45.7 37.8-55.4 64.8"/><path class="c" d="m3318.8 785.7c-48.9 157.7-256 309.3-256 309.3 0 0-264.7-193.9-266.1-371.1-0.3-28.8 6.4-57.1 22.3-84.1 90.2-153.2 243.8 15.8 243.8 15.8 0 0 153.7-169 243.9-15.8 27.2 46.2 27.5 96.4 12.1 145.9z"/><path class="d" d="m3137.9 808.3h-40v-40.1h-32.9v40.1h-40.1v32.9h40.1v40.1h32.9v-40.1h40z"/><path class="e" d="m3339.7 746.7c-25.6-9.4-60.3 25.5-81.1 53.6-20.7 28.2-30.8 42.9-20.5 55.2 10.3 12.3 42 13.1 95.8-37.2"/><path class="e" d="m3305.5 535.9c-34.5-3.5-62 43.4-77.4 78.3-15.5 35-32.1 56.8-11.7 73.7 20.3 14.7 81.1-46.1 98.2-68.2"/><path class="e" d="m3152 454.2c-35 4.3-44.1 66.1-47.9 108-3.8 41.9-11.3 73.3 15.9 80.9 25.2 8.2 66.8-43.5 76.9-124"/><path class="e" d="m2857.4 970.4c18.7-10.9 24.1-43.3 28.4-62.3 6.4-28.2 11.2-57.6 15-86.6 3.4-26.1 4.7-52.6 8.6-78.6 1.8-11.4 4.9-22.2 5.3-33.7 0.5-18.8-4.2-63.5-30-65.8-7.4-0.7-14 3.9-18.8 9-6.5 6.8-11.8 15.5-17.8 22.7-9.5 11.7-18.9 23.4-27.6 35.7-21.3 30.2-39.3 70.8-44.4 107.9-0.6 5.1-1.2 3.4-1.4 8.6"/><path class="e" d="m2961.9 491.9c-62.1 16.6-37.4 126.3-17.7 164.9 6 11.9 15.4 25 30.2 25 9.1 0 17.5-5.7 22.7-13.2 7.4-10.5 9.2-23.9 10.4-36.4 1.6-17.2 0.9-34.7 0.9-52"/><path class="f" d="m426.9 1095.4c0 0-201.8-101.9-203.3-293.7-1.4-191.8 104.1-240.4 356.9-199.8 252.8 40.6 132.8 400.4 85.8 431.5-47 31-239.4 62-239.4 62z"/><path class="e" d="m519.4 677.2c0 0 5.4-155.1 12.8-188 7.4-32.9 29.1-53.5 64.1-46.5 35 7.1 19.8 223.1 19.8 223.1l-61.2 90-31.5-21.9z"/><path class="e" d="m228.1 771.3c0 0-39.8-149.9-40.1-183.7-0.3-33.7 19.5-55.6 55.1-56.7 35.7-1.1 66.9 209.5 66.9 209.5l-39 101.6-35.7-14.1z"/><path class="e" d="m307.5 654.4c0 0 10-154.9 20.5-186.9 10.5-32.1 36.2-46.5 70.3-36.2 34.2 10.3-3.4 219.9-3.4 219.9l-69.4 83.8-29.2-24.7z"/><path class="b" d="m207.4 758.5c33.7-3.5 48 40.6 58.4 69.7 10.5 29.1 63.6 184.2 207.1 160.2 143.5-24.1 228-146.6 228-146.6 22.9 13.9 72.5-44.6 103.4-26.5 8.5 47.1 16.5 136.8 1 184.1-5.8 32.6-127.6 169.7-134.6 209.3-7 39.5 47.6 1261.6 47.6 1261.6h-434.9c0 0 56.9-1208.1 56.9-1243 0-34.9-24.7-79.2-49.1-111.7-40.3-42.7-68.6-105.9-102.4-210.6-33.7-104.7-15.2-143 18.6-146.5z"/><path class="g" d="m3062.5 1081.6v253.4c0 66.9-53.8 121.3-120.6 121.9-151.6 1.6-415.3 0.3-608.9-22.5-265.6-31.2-492.7-54.3-668.7-207.8-49.9-43.5-94.3-95.6-104.3-162.5-20.8-139.4 172.8-216.2 244.3-89.2 10.8 19.2 11.4 66.5-12 78.4-43.7 22.5-45.9-55.8-33.2-78.4 75-133.2 267.2-64.3 244.3 89.2-10 66.9-54.4 119-104.3 162.5-176 153.5-443 199.2-663.6 224.7 0 0-462.2 53.8-666.7 31-52.7-5.8-92.5-50.3-92.5-103.3v-92.5"/><path class="b" d="m620.6 575.1h-275.2c-54.2 0-98.2 44-98.2 98.2v399.7c0 29.3 12.9 56.8 35.4 75.5l137.6 114.5q2.3 1.9 4.6 3.6v35.9c0 16 13.1 29.1 29.2 29.1h58.1c16 0 29.1-13.1 29.1-29.1v-35.9q2.4-1.7 4.6-3.6l137.6-114.5c22.5-18.7 35.4-46.2 35.4-75.5v-399.7c0-54.2-44-98.2-98.2-98.2z"/><path class="c" d="m701 712.9v360.1c0 23.9-10.6 46.6-29 61.8l-137.6 114.5q-5.3 4.3-11 7.7v45.5c0 6.2-5.1 11.3-11.3 11.3h-58.1c-6.3 0-11.4-5.1-11.4-11.3v-45.5q-5.7-3.4-11-7.7l-137.6-114.5c-18.3-15.2-29-37.9-29-61.8v-330c0 0 120.8 56.6 218-5.8 97.2-62.5 218-24.3 218-24.3z"/><path class="e" d="m206.3 758.8c29.3-6.6 80.6 40 98.6 73.1 18 33.2 14.9 47.9 2.1 59.5-21.7 21.2-65.4-11.5-84-31.9"/><path class="e" d="m233.5 531.6c38-5 77.3 49.6 94 87.3 16.6 37.7 26.4 59.1 4.4 77.3-21.9 16-75.8-35.1-94.3-58.9"/><path class="e" d="m384.3 428c48 2.5 75.2 75.9 79.3 121.1 4.2 45.2 1.7 79-27.7 87.2-41.6 3.1-57.1-55-67.9-86.3"/><path class="e" d="m735.6 930.1c0 0-65.5-137.9-73.6-182.4-4.3-23.3-6.5-48.1 1.7-70.7 3.1-8.3 7.5-17 14.2-23 8.8-7.9 17.4-6.1 27.5-1.8 21.9 9.2 41.3 24.1 56.7 42.1 36.4 42.3 33.2 59.1 47 147.2"/><path class="e" d="m544.3 557.1c5.6 48.9 3.7 83.5 43.4 97.3 31.7 2.1 48-47.5 50.1-80.6 2.1-33.1 8-98.9-15-119.5 0 0-19.2-23.8-59.3-7.5"/><path fill-rule="evenodd" class="d" d="m618.1 863.1v248.9h-268.5v-248.9z"/><path fill-rule="evenodd" class="h" d="m459.4 886.3v92.3h-92.4v-92.3z"/><path class="c" d="m443.8 923.5h-21.7v-21.6h-17.8v21.6h-21.7v17.8h21.7v21.7h17.8v-21.7h21.7z"/><path class="i" d="m591.2 899.6h-112.2c-2 0-3.6-1.6-3.6-3.6 0-2.1 1.6-3.7 3.6-3.7h112.2c2.1 0 3.7 1.6 3.7 3.7 0 2-1.6 3.6-3.7 3.6z"/><path class="i" d="m591.2 922.6h-112.2c-2 0-3.6-1.6-3.6-3.6 0-2 1.6-3.6 3.6-3.6h112.2c2.1 0 3.7 1.6 3.7 3.6 0 2-1.6 3.6-3.7 3.6z"/><path class="i" d="m591.2 945.7h-112.2c-2 0-3.6-1.6-3.6-3.6 0-2.1 1.6-3.7 3.6-3.7h112.2c2.1 0 3.7 1.6 3.7 3.7 0 2-1.6 3.6-3.7 3.6z"/><path class="i" d="m535.1 968.7h-56.1c-2 0-3.6-1.6-3.6-3.6 0-2 1.6-3.6 3.6-3.6h56.1c2 0 3.7 1.6 3.7 3.6 0 2-1.7 3.6-3.7 3.6z"/><path class="i" d="m456 1047.2h-85.6c-1.9 0-3.4-1.4-3.4-3.2 0-1.8 1.5-3.3 3.4-3.3h85.6c1.9 0 3.4 1.5 3.4 3.3 0 1.8-1.5 3.2-3.4 3.2z"/><path class="i" d="m456 1031.4h-85.6c-1.9 0-3.4-1.4-3.4-3.2 0-1.8 1.5-3.2 3.4-3.2h85.6c1.9 0 3.4 1.4 3.4 3.2 0 1.8-1.5 3.2-3.4 3.2z"/><path class="i" d="m456 1015.7h-85.6c-1.9 0-3.4-1.5-3.4-3.3 0-1.8 1.5-3.2 3.4-3.2h85.6c1.9 0 3.4 1.4 3.4 3.2 0 1.8-1.5 3.3-3.4 3.3z"/><path class="i" d="m456 1062.5h-85.6c-1.9 0-3.4-1.4-3.4-3.2 0-1.8 1.5-3.2 3.4-3.2h85.6c1.9 0 3.4 1.4 3.4 3.2 0 1.8-1.5 3.2-3.4 3.2z"/><path class="i" d="m456 1077.9h-85.6c-1.9 0-3.4-1.5-3.4-3.3 0-1.8 1.5-3.2 3.4-3.2h85.6c1.9 0 3.4 1.4 3.4 3.2 0 1.8-1.5 3.3-3.4 3.3z"/><path class="i" d="m413.2 1093.2h-42.8c-1.9 0-3.4-1.5-3.4-3.3 0-1.8 1.5-3.2 3.4-3.2h42.8c1.9 0 3.4 1.4 3.4 3.2 0 1.8-1.5 3.3-3.4 3.3z"/><path class="i" d="m567.5 1095h30.5l-38.2-87.3h-28.9l-38.2 87.3h29.9l5.9-15.2h33.2zm-30.9-36.4l8.4-22 8.5 22z"/><path class="c" d="m490.6 1008.8c-28.2 50.2 0 49.2 0 49.2 0 0 28.3 1 0-49.2z"/><path class="j" d="m1484.9 905.5l22.4 15.1c3.2 2.2 4 6.5 1.9 9.7-2.2 3.2-6.6 4.1-9.8 1.9l-22.4-15.1c-3.2-2.2-4-6.5-1.8-9.7 2.1-3.2 6.5-4 9.7-1.9zm86.3-60.4l7.5 25.9c1.1 3.7-1.1 7.6-4.8 8.6-3.7 1.1-7.6-1.1-8.7-4.8l-7.4-25.9c-1.1-3.7 1-7.6 4.8-8.6 3.7-1.1 7.6 1 8.6 4.8zm-105.9 167.1l26.3-6.5c3.7-0.9 7.5 1.4 8.5 5.1 0.9 3.8-1.4 7.6-5.2 8.5l-26.2 6.5c-3.7 0.9-7.5-1.4-8.5-5.1-0.9-3.8 1.4-7.6 5.1-8.5z"/><path class="j" d="m2109.4 905.5l-21.3 15.1c-3 2.2-3.8 6.5-1.8 9.7 2.1 3.2 6.2 4.1 9.3 1.9l21.2-15.1c3.1-2.2 3.9-6.5 1.8-9.7-2.1-3.2-6.2-4-9.2-1.9zm-82-60.4l-7.1 25.9c-1 3.7 1 7.6 4.5 8.6 3.6 1.1 7.2-1.1 8.3-4.8l7.1-25.9c1-3.7-1.1-7.6-4.6-8.6-3.5-1.1-7.2 1-8.2 4.8zm100.5 167.1l-24.9-6.5c-3.6-0.9-7.2 1.4-8 5.1-0.9 3.8 1.2 7.6 4.8 8.5l24.9 6.5c3.6 0.9 7.2-1.4 8.1-5.1 0.9-3.8-1.3-7.6-4.9-8.5z"/></svg>