<svg version="1.2" xmlns="http://www.w3.org/2000/svg" viewBox="0 0 386 540" width="386" height="540"><defs><clipPath clipPathUnits="userSpaceOnUse" id="cp1"><path d="m0 0h386v540h-386z"/></clipPath><clipPath clipPathUnits="userSpaceOnUse" id="cp2"><path d="m24 0h1243.88c13.25 0 24 10.75 24 24v492c0 13.25-10.75 24-24 24h-1243.88c-13.25 0-24-10.75-24-24v-492c0-13.25 10.75-24 24-24z"/></clipPath></defs><style>.a{fill:none;stroke:#ff8c66;stroke-linecap:round;stroke-width:8}</style><filter id="f0"><feFlood flood-color="#ef4444" flood-opacity="1" /><feBlend mode="normal" in2="SourceGraphic"/><feComposite in2="SourceAlpha" operator="in" /></filter><g clip-path="url(#cp1)" filter="url(#f0)"><g clip-path="url(#cp2)"><path class="a" d="m-41.2-185.3c107.2 79.1 210.2 194.1 219.9 333.4 2.4 35.3-5 71.8-20 105.1m0 0c-22.8 50.7-63.3 94-113.4 114.2-78.4 31.6-171.1 30.6-226.6-39.9-28.9-36.7-38-81.4-5.5-119.3 49.7-57.9 157.4-49.7 220.6-24.6 43.7 17.4 85.7 41 124.9 69.6zm0 0c137.7 100.6 240.4 262.3 257.3 427.4"/></g></g></svg>